<svg width="180" height="246" viewBox="0 0 180 246" fill="none" xmlns="http://www.w3.org/2000/svg">
<path d="M64.7067 231.4L59.5667 243.06C59.1134 244.14 58.5801 244.9 57.9667 245.34C57.3667 245.78 56.6401 246 55.7867 246C55.2667 246 54.7601 245.913 54.2667 245.74C53.7867 245.58 53.3867 245.34 53.0667 245.02L53.8867 243.58C54.4334 244.1 55.0667 244.36 55.7867 244.36C56.2534 244.36 56.6401 244.233 56.9467 243.98C57.2667 243.74 57.5534 243.32 57.8067 242.72L58.1467 241.98L53.4667 231.4H55.4667L59.1667 239.88L62.8267 231.4H64.7067ZM75.707 237.52H73.647V242H71.727V237.52H69.667L66.747 242H64.467L68.107 236.52L64.747 231.4H66.787L69.647 235.88H71.727V231.4H73.647V235.88H75.727L78.587 231.4H80.647L77.287 236.54L80.927 242H78.647L75.707 237.52ZM86.6244 231.3C88.091 231.3 89.211 231.66 89.9844 232.38C90.771 233.1 91.1644 234.173 91.1644 235.6V242H89.3444V240.6C89.0244 241.093 88.5644 241.473 87.9644 241.74C87.3777 241.993 86.6777 242.12 85.8644 242.12C84.6777 242.12 83.7244 241.833 83.0044 241.26C82.2977 240.687 81.9444 239.933 81.9444 239C81.9444 238.067 82.2844 237.32 82.9644 236.76C83.6444 236.187 84.7244 235.9 86.2044 235.9H89.2444V235.52C89.2444 234.693 89.0044 234.06 88.5244 233.62C88.0444 233.18 87.3377 232.96 86.4044 232.96C85.7777 232.96 85.1644 233.067 84.5644 233.28C83.9644 233.48 83.4577 233.753 83.0444 234.1L82.2444 232.66C82.791 232.22 83.4444 231.887 84.2044 231.66C84.9644 231.42 85.771 231.3 86.6244 231.3ZM86.1844 240.64C86.9177 240.64 87.551 240.48 88.0844 240.16C88.6177 239.827 89.0044 239.36 89.2444 238.76V237.28H86.2844C84.6577 237.28 83.8444 237.827 83.8444 238.92C83.8444 239.453 84.051 239.873 84.4644 240.18C84.8777 240.487 85.451 240.64 86.1844 240.64ZM99.2417 242.12C98.1617 242.12 97.1951 241.887 96.3417 241.42C95.5017 240.953 94.8417 240.313 94.3617 239.5C93.8817 238.673 93.6417 237.74 93.6417 236.7C93.6417 235.66 93.8817 234.733 94.3617 233.92C94.8417 233.093 95.5017 232.453 96.3417 232C97.1951 231.533 98.1617 231.3 99.2417 231.3C100.202 231.3 101.055 231.493 101.802 231.88C102.562 232.267 103.148 232.827 103.562 233.56L102.102 234.5C101.768 233.993 101.355 233.613 100.862 233.36C100.368 233.107 99.8217 232.98 99.2217 232.98C98.5284 232.98 97.9017 233.133 97.3417 233.44C96.7951 233.747 96.3617 234.187 96.0417 234.76C95.7351 235.32 95.5817 235.967 95.5817 236.7C95.5817 237.447 95.7351 238.107 96.0417 238.68C96.3617 239.24 96.7951 239.673 97.3417 239.98C97.9017 240.287 98.5284 240.44 99.2217 240.44C99.8217 240.44 100.368 240.313 100.862 240.06C101.355 239.807 101.768 239.427 102.102 238.92L103.562 239.84C103.148 240.573 102.562 241.14 101.802 241.54C101.055 241.927 100.202 242.12 99.2417 242.12ZM106.048 231.4H107.968V235.9H114.008V231.4H115.928V242H114.008V237.56H107.968V242H106.048V231.4ZM124.201 242.12C123.147 242.12 122.201 241.887 121.361 241.42C120.521 240.953 119.861 240.313 119.381 239.5C118.914 238.673 118.681 237.74 118.681 236.7C118.681 235.66 118.914 234.733 119.381 233.92C119.861 233.093 120.521 232.453 121.361 232C122.201 231.533 123.147 231.3 124.201 231.3C125.254 231.3 126.194 231.533 127.021 232C127.861 232.453 128.514 233.093 128.981 233.92C129.461 234.733 129.701 235.66 129.701 236.7C129.701 237.74 129.461 238.673 128.981 239.5C128.514 240.313 127.861 240.953 127.021 241.42C126.194 241.887 125.254 242.12 124.201 242.12ZM124.201 240.44C124.881 240.44 125.487 240.287 126.021 239.98C126.567 239.66 126.994 239.22 127.301 238.66C127.607 238.087 127.761 237.433 127.761 236.7C127.761 235.967 127.607 235.32 127.301 234.76C126.994 234.187 126.567 233.747 126.021 233.44C125.487 233.133 124.881 232.98 124.201 232.98C123.521 232.98 122.907 233.133 122.361 233.44C121.827 233.747 121.401 234.187 121.081 234.76C120.774 235.32 120.621 235.967 120.621 236.7C120.621 237.433 120.774 238.087 121.081 238.66C121.401 239.22 121.827 239.66 122.361 239.98C122.907 240.287 123.521 240.44 124.201 240.44Z" fill="black"/>
<path d="M90 3.91309C137.543 3.91309 176.087 42.4566 176.087 90.0001C176.087 137.544 137.543 176.087 90 176.087C42.4565 176.087 3.91302 137.544 3.91302 90.0001C3.91302 42.4566 42.4565 3.91309 90 3.91309ZM129.13 82.174C129.13 77.8696 125.609 74.3479 121.304 74.3479C117 74.3479 113.478 77.8696 113.478 82.174C113.478 86.4783 117 90.0001 121.304 90.0001C125.609 90.0001 129.13 86.4783 129.13 82.174ZM66.5217 82.174C66.5217 77.8696 63 74.3479 58.6956 74.3479C54.3913 74.3479 50.8695 77.8696 50.8695 82.174C50.8695 86.4783 54.3913 90.0001 58.6956 90.0001C63 90.0001 66.5217 86.4783 66.5217 82.174Z" fill="#FF4D4F"/>
<path d="M121.304 89.9998C125.627 89.9998 129.13 86.496 129.13 82.1737C129.13 77.8515 125.627 74.3477 121.304 74.3477C116.982 74.3477 113.478 77.8515 113.478 82.1737C113.478 86.496 116.982 89.9998 121.304 89.9998Z" fill="#FF4D4F"/>
<path d="M58.6956 89.9998C63.0179 89.9998 66.5217 86.496 66.5217 82.1737C66.5217 77.8515 63.0179 74.3477 58.6956 74.3477C54.3734 74.3477 50.8696 77.8515 50.8696 82.1737C50.8696 86.496 54.3734 89.9998 58.6956 89.9998Z" fill="#FF4D4F"/>
<path d="M70.4347 82.1737C70.4347 75.7015 65.1678 70.4346 58.6956 70.4346C52.2234 70.4346 46.9565 75.7015 46.9565 82.1737C46.9565 88.6459 52.2234 93.9128 58.6956 93.9128C65.1678 93.9128 70.4347 88.6459 70.4347 82.1737ZM54.7826 82.1737C54.7826 80.0176 56.5395 78.2607 58.6956 78.2607C60.8517 78.2607 62.6087 80.0176 62.6087 82.1737C62.6087 84.3298 60.8517 86.0868 58.6956 86.0868C56.5395 86.0868 54.7826 84.3298 54.7826 82.1737Z" fill="#760000"/>
<path d="M121.304 70.4346C114.832 70.4346 109.565 75.7015 109.565 82.1737C109.565 88.6459 114.832 93.9128 121.304 93.9128C127.776 93.9128 133.043 88.6459 133.043 82.1737C133.043 75.7015 127.776 70.4346 121.304 70.4346ZM121.304 86.0868C119.144 86.0868 117.391 84.3298 117.391 82.1737C117.391 80.0176 119.144 78.2607 121.304 78.2607C123.464 78.2607 125.217 80.0176 125.217 82.1737C125.217 84.3298 123.464 86.0868 121.304 86.0868Z" fill="#760000"/>
<path d="M105.656 54.7827C106.243 54.7827 106.842 54.6496 107.401 54.3718L123.053 46.5457C124.986 45.5792 125.769 43.2275 124.803 41.2944C123.832 39.3614 121.48 38.5748 119.551 39.5453L103.899 47.3714C101.966 48.3379 101.183 50.6896 102.15 52.6227C102.839 53.9922 104.22 54.7827 105.656 54.7827Z" fill="#760000"/>
<path d="M56.9465 46.5455L72.5987 54.3716C73.1582 54.6494 73.7569 54.7825 74.3439 54.7825C75.78 54.7825 77.1613 53.992 77.85 52.6186C78.8165 50.6855 78.0339 48.3338 76.1009 47.3672L60.4487 39.5412C58.5078 38.5707 56.1639 39.3612 55.1974 41.2903C54.2269 43.2273 55.0135 45.5751 56.9465 46.5455Z" fill="#760000"/>
<path d="M89.9999 109.565C75.4043 109.565 61.5052 115.748 51.8634 126.52C50.4234 128.132 50.5604 130.601 52.1725 132.045C52.9199 132.714 53.8512 133.043 54.7825 133.043C55.8586 133.043 56.9269 132.605 57.7017 131.74C65.8565 122.619 77.6269 117.391 89.9999 117.391C102.338 117.391 114.116 122.623 122.306 131.744C123.75 133.356 126.227 133.481 127.831 132.041C129.439 130.598 129.573 128.125 128.129 126.516C118.452 115.744 104.56 109.565 89.9999 109.565Z" fill="#760000"/>
</svg>
