<svg width="180" height="216" viewBox="0 0 180 216" fill="none" xmlns="http://www.w3.org/2000/svg">
<path d="M90.5973 206.88C91.9707 207.013 93.0173 207.44 93.7373 208.16C94.4573 208.867 94.8173 209.773 94.8173 210.88C94.8173 211.68 94.6173 212.407 94.2173 213.06C93.8173 213.7 93.2173 214.213 92.4173 214.6C91.6307 214.973 90.664 215.16 89.5173 215.16C88.5173 215.16 87.5573 215.013 86.6373 214.72C85.7173 214.413 84.964 213.993 84.3773 213.46L85.2973 211.88C85.7773 212.333 86.3907 212.7 87.1373 212.98C87.884 213.247 88.6773 213.38 89.5173 213.38C90.5573 213.38 91.364 213.16 91.9373 212.72C92.524 212.28 92.8173 211.673 92.8173 210.9C92.8173 210.127 92.5307 209.527 91.9573 209.1C91.384 208.673 90.5173 208.46 89.3573 208.46H88.2373V207.06L91.7573 202.74H85.0173V201H94.2573V202.36L90.5973 206.88Z" fill="black"/>
<path d="M90 3.91309C137.543 3.91309 176.087 42.4566 176.087 90C176.087 137.544 137.543 176.087 90 176.087C42.4565 176.087 3.91302 137.544 3.91302 90C3.91302 42.4566 42.4565 3.91309 90 3.91309ZM129.13 74.3479C129.13 70.0435 125.609 66.5218 121.304 66.5218C117 66.5218 113.478 70.0435 113.478 74.3479C113.478 78.6522 117 82.174 121.304 82.174C125.609 82.174 129.13 78.6522 129.13 74.3479ZM66.5217 74.3479C66.5217 70.0435 63 66.5218 58.6956 66.5218C54.3913 66.5218 50.8695 70.0435 50.8695 74.3479C50.8695 78.6522 54.3913 82.174 58.6956 82.174C63 82.174 66.5217 78.6522 66.5217 74.3479Z" fill="#E6EA18"/>
<path d="M121.304 82.1741C125.627 82.1741 129.13 78.6703 129.13 74.3481C129.13 70.0258 125.627 66.522 121.304 66.522C116.982 66.522 113.478 70.0258 113.478 74.3481C113.478 78.6703 116.982 82.1741 121.304 82.1741Z" fill="#E6EA18"/>
<path d="M58.6957 82.1741C63.0179 82.1741 66.5217 78.6703 66.5217 74.3481C66.5217 70.0258 63.0179 66.522 58.6957 66.522C54.3734 66.522 50.8696 70.0258 50.8696 74.3481C50.8696 78.6703 54.3734 82.1741 58.6957 82.1741Z" fill="#E6EA18"/>
<path d="M58.6956 86.0871C65.1678 86.0871 70.4347 80.8202 70.4347 74.348C70.4347 67.8758 65.1678 62.6089 58.6956 62.6089C52.2234 62.6089 46.9565 67.8758 46.9565 74.348C46.9565 80.8202 52.2234 86.0871 58.6956 86.0871ZM58.6956 70.435C60.8517 70.435 62.6087 72.1919 62.6087 74.348C62.6087 76.5041 60.8517 78.2611 58.6956 78.2611C56.5395 78.2611 54.7826 76.5041 54.7826 74.348C54.7826 72.1919 56.5395 70.435 58.6956 70.435Z" fill="#635301"/>
<path d="M121.304 62.6089C114.832 62.6089 109.565 67.8758 109.565 74.348C109.565 80.8202 114.832 86.0871 121.304 86.0871C127.776 86.0871 133.043 80.8202 133.043 74.348C133.043 67.8758 127.776 62.6089 121.304 62.6089ZM121.304 78.2611C119.148 78.2611 117.391 76.5041 117.391 74.348C117.391 72.1919 119.148 70.435 121.304 70.435C123.46 70.435 125.217 72.1919 125.217 74.348C125.217 76.5041 123.46 78.2611 121.304 78.2611Z" fill="#635301"/>
<path d="M129.13 109.565H50.8695C48.7095 109.565 46.9565 111.318 46.9565 113.478C46.9565 115.638 48.7095 117.392 50.8695 117.392H129.13C131.29 117.392 133.043 115.638 133.043 113.478C133.043 111.318 131.29 109.565 129.13 109.565Z" fill="#635301"/>
</svg>
