<svg width="176" height="211" viewBox="0 0 176 211" fill="none" xmlns="http://www.w3.org/2000/svg">
<path d="M94.4505 207.56H91.7905V211H89.8505V207.56H82.0705V206.16L89.2305 197H91.3905L84.5305 205.84H89.9105V202.8H91.7905V205.84H94.4505V207.56Z" fill="black"/>
<path d="M88 0C136.6 0 176 38.5045 176 86C176 133.495 136.6 172 88 172C39.4 172 0 133.495 0 86C0 38.5045 39.4 0 88 0ZM128 70.3636C128 66.0636 124.4 62.5455 120 62.5455C115.6 62.5455 112 66.0636 112 70.3636C112 74.6636 115.6 78.1818 120 78.1818C124.4 78.1818 128 74.6636 128 70.3636ZM64 70.3636C64 66.0636 60.4 62.5455 56 62.5455C51.6 62.5455 48 66.0636 48 70.3636C48 74.6636 51.6 78.1818 56 78.1818C60.4 78.1818 64 74.6636 64 70.3636Z" fill="#73D13D"/>
<path d="M120 78.1818C124.418 78.1818 128 74.6815 128 70.3636C128 66.0457 124.418 62.5454 120 62.5454C115.582 62.5454 112 66.0457 112 70.3636C112 74.6815 115.582 78.1818 120 78.1818Z" fill="#73D13D"/>
<path d="M56 78.1818C60.4183 78.1818 64 74.6815 64 70.3636C64 66.0457 60.4183 62.5454 56 62.5454C51.5817 62.5454 48 66.0457 48 70.3636C48 74.6815 51.5817 78.1818 56 78.1818Z" fill="#73D13D"/>
<path d="M70.0893 68.8002C70.0893 62.4782 64.5399 57.3335 57.7206 57.3335C50.9013 57.3335 45.3519 62.4782 45.3519 68.8002C45.3519 75.1221 50.9013 80.2668 57.7206 80.2668C64.5399 80.2668 70.0893 75.1221 70.0893 68.8002ZM53.5977 68.8002C53.5977 66.6941 55.4489 64.9779 57.7206 64.9779C59.9923 64.9779 61.8435 66.6941 61.8435 68.8002C61.8435 70.9062 59.9923 72.6224 57.7206 72.6224C55.4489 72.6224 53.5977 70.9062 53.5977 68.8002Z" fill="#195F01"/>
<path d="M123.687 57.3335C116.868 57.3335 111.318 62.4782 111.318 68.8002C111.318 75.1221 116.868 80.2668 123.687 80.2668C130.506 80.2668 136.056 75.1221 136.056 68.8002C136.056 62.4782 130.506 57.3335 123.687 57.3335ZM123.687 72.6224C121.415 72.6224 119.564 70.9062 119.564 68.8002C119.564 66.6941 121.415 64.9779 123.687 64.9779C125.959 64.9779 127.81 66.6941 127.81 68.8002C127.81 70.9062 125.959 72.6224 123.687 72.6224Z" fill="#195F01"/>
<path d="M124.734 104.473C116.142 113.382 103.74 118.489 90.7037 118.489C77.7043 118.489 65.2943 113.379 56.6651 104.469C55.1438 102.894 52.5381 102.764 50.8436 104.178C49.1491 105.589 49.0089 108.004 50.5302 109.575C60.722 120.098 75.3666 126.133 90.7037 126.133C106.082 126.133 120.727 120.094 130.885 109.572C132.403 107.997 132.258 105.585 130.56 104.175C128.857 102.768 126.251 102.898 124.734 104.473Z" fill="#195F01"/>
</svg>
