<svg width="180" height="215" viewBox="0 0 180 215" fill="none" xmlns="http://www.w3.org/2000/svg">
<path d="M91.5988 201V215H89.6188V202.74H86.4588V201H91.5988Z" fill="black"/>
<path d="M90 3.91309C137.543 3.91309 176.087 42.4566 176.087 90.0001C176.087 137.544 137.543 176.087 90 176.087C42.4565 176.087 3.91302 137.544 3.91302 90.0001C3.91302 42.4566 42.4565 3.91309 90 3.91309ZM129.13 82.174C129.13 77.8696 125.609 74.3479 121.304 74.3479C117 74.3479 113.478 77.8696 113.478 82.174C113.478 86.4783 117 90.0001 121.304 90.0001C125.609 90.0001 129.13 86.4783 129.13 82.174ZM66.5217 82.174C66.5217 77.8696 63 74.3479 58.6956 74.3479C54.3913 74.3479 50.8695 77.8696 50.8695 82.174C50.8695 86.4783 54.3913 90.0001 58.6956 90.0001C63 90.0001 66.5217 86.4783 66.5217 82.174Z" fill="#FF4D4F"/>
<path d="M121.304 89.9998C125.627 89.9998 129.13 86.496 129.13 82.1737C129.13 77.8515 125.627 74.3477 121.304 74.3477C116.982 74.3477 113.478 77.8515 113.478 82.1737C113.478 86.496 116.982 89.9998 121.304 89.9998Z" fill="#FF4D4F"/>
<path d="M58.6956 89.9998C63.0179 89.9998 66.5217 86.496 66.5217 82.1737C66.5217 77.8515 63.0179 74.3477 58.6956 74.3477C54.3734 74.3477 50.8696 77.8515 50.8696 82.1737C50.8696 86.496 54.3734 89.9998 58.6956 89.9998Z" fill="#FF4D4F"/>
<path d="M70.4347 82.1737C70.4347 75.7015 65.1678 70.4346 58.6956 70.4346C52.2234 70.4346 46.9565 75.7015 46.9565 82.1737C46.9565 88.6459 52.2234 93.9128 58.6956 93.9128C65.1678 93.9128 70.4347 88.6459 70.4347 82.1737ZM54.7826 82.1737C54.7826 80.0176 56.5395 78.2607 58.6956 78.2607C60.8517 78.2607 62.6087 80.0176 62.6087 82.1737C62.6087 84.3298 60.8517 86.0868 58.6956 86.0868C56.5395 86.0868 54.7826 84.3298 54.7826 82.1737Z" fill="#760000"/>
<path d="M121.304 70.4346C114.832 70.4346 109.565 75.7015 109.565 82.1737C109.565 88.6459 114.832 93.9128 121.304 93.9128C127.776 93.9128 133.043 88.6459 133.043 82.1737C133.043 75.7015 127.776 70.4346 121.304 70.4346ZM121.304 86.0868C119.144 86.0868 117.391 84.3298 117.391 82.1737C117.391 80.0176 119.144 78.2607 121.304 78.2607C123.464 78.2607 125.217 80.0176 125.217 82.1737C125.217 84.3298 123.464 86.0868 121.304 86.0868Z" fill="#760000"/>
<path d="M105.656 54.7827C106.243 54.7827 106.842 54.6496 107.401 54.3718L123.053 46.5457C124.986 45.5792 125.769 43.2275 124.803 41.2944C123.832 39.3614 121.48 38.5748 119.551 39.5453L103.899 47.3714C101.966 48.3379 101.183 50.6896 102.15 52.6227C102.839 53.9922 104.22 54.7827 105.656 54.7827Z" fill="#760000"/>
<path d="M56.9465 46.5455L72.5987 54.3716C73.1582 54.6494 73.7569 54.7825 74.3439 54.7825C75.78 54.7825 77.1613 53.992 77.85 52.6186C78.8165 50.6855 78.0339 48.3338 76.1009 47.3672L60.4487 39.5412C58.5078 38.5707 56.1639 39.3612 55.1974 41.2903C54.2269 43.2273 55.0135 45.5751 56.9465 46.5455Z" fill="#760000"/>
<path d="M89.9999 109.565C75.4043 109.565 61.5052 115.748 51.8634 126.52C50.4234 128.132 50.5604 130.601 52.1725 132.045C52.9199 132.714 53.8512 133.043 54.7825 133.043C55.8586 133.043 56.9269 132.605 57.7017 131.74C65.8565 122.619 77.6269 117.391 89.9999 117.391C102.338 117.391 114.116 122.623 122.306 131.744C123.75 133.356 126.227 133.481 127.831 132.041C129.439 130.598 129.573 128.125 128.129 126.516C118.452 115.744 104.56 109.565 89.9999 109.565Z" fill="#760000"/>
</svg>
