<svg width="173" height="212" viewBox="0 0 173 212" fill="none" xmlns="http://www.w3.org/2000/svg">
<path d="M91.0578 210.26V212H80.9978V210.64L86.6978 205.14C87.3911 204.473 87.8578 203.9 88.0978 203.42C88.3378 202.927 88.4578 202.433 88.4578 201.94C88.4578 201.207 88.1978 200.64 87.6778 200.24C87.1711 199.827 86.4378 199.62 85.4778 199.62C83.9311 199.62 82.7378 200.127 81.8978 201.14L80.5378 199.96C81.0845 199.293 81.7978 198.773 82.6778 198.4C83.5711 198.027 84.5645 197.84 85.6578 197.84C87.1245 197.84 88.2911 198.193 89.1578 198.9C90.0245 199.593 90.4578 200.54 90.4578 201.74C90.4578 202.487 90.2978 203.193 89.9778 203.86C89.6578 204.527 89.0511 205.287 88.1578 206.14L83.8778 210.26H91.0578Z" fill="black"/>
<path d="M86.087 0.913086C133.63 0.913086 172.174 39.4566 172.174 87C172.174 134.544 133.63 173.087 86.087 173.087C38.5435 173.087 0 134.544 0 87C0 39.4566 38.5435 0.913086 86.087 0.913086ZM125.217 71.3479C125.217 67.0435 121.696 63.5218 117.391 63.5218C113.087 63.5218 109.565 67.0435 109.565 71.3479C109.565 75.6522 113.087 79.174 117.391 79.174C121.696 79.174 125.217 75.6522 125.217 71.3479ZM62.6087 71.3479C62.6087 67.0435 59.087 63.5218 54.7826 63.5218C50.4783 63.5218 46.9565 67.0435 46.9565 71.3479C46.9565 75.6522 50.4783 79.174 54.7826 79.174C59.087 79.174 62.6087 75.6522 62.6087 71.3479Z" fill="#FE8D26"/>
<path d="M117.391 79.1741C121.714 79.1741 125.217 75.6703 125.217 71.3481C125.217 67.0258 121.714 63.522 117.391 63.522C113.069 63.522 109.565 67.0258 109.565 71.3481C109.565 75.6703 113.069 79.1741 117.391 79.1741Z" fill="#FE8D26"/>
<path d="M54.7826 79.1741C59.1048 79.1741 62.6087 75.6703 62.6087 71.3481C62.6087 67.0258 59.1048 63.522 54.7826 63.522C50.4603 63.522 46.9565 67.0258 46.9565 71.3481C46.9565 75.6703 50.4603 79.1741 54.7826 79.1741Z" fill="#FE8D26"/>
<path d="M66.5217 71.348C66.5217 64.8758 61.2548 59.6089 54.7826 59.6089C48.3104 59.6089 43.0435 64.8758 43.0435 71.348C43.0435 77.8202 48.3104 83.0871 54.7826 83.0871C61.2548 83.0871 66.5217 77.8202 66.5217 71.348ZM50.8695 71.348C50.8695 69.1919 52.6265 67.435 54.7826 67.435C56.9387 67.435 58.6956 69.1919 58.6956 71.348C58.6956 73.5041 56.9387 75.2611 54.7826 75.2611C52.6265 75.2611 50.8695 73.5041 50.8695 71.348Z" fill="#683901"/>
<path d="M117.391 59.6089C110.919 59.6089 105.652 64.8758 105.652 71.348C105.652 77.8202 110.919 83.0871 117.391 83.0871C123.863 83.0871 129.13 77.8202 129.13 71.348C129.13 64.8758 123.863 59.6089 117.391 59.6089ZM117.391 75.2611C115.231 75.2611 113.478 73.5041 113.478 71.348C113.478 69.1919 115.231 67.435 117.391 67.435C119.551 67.435 121.304 69.1919 121.304 71.348C121.304 73.5041 119.551 75.2611 117.391 75.2611Z" fill="#683901"/>
<path d="M86.0869 106.565C71.5304 106.565 57.6313 112.744 47.9582 123.517C46.5143 125.125 46.6474 127.598 48.2556 129.042C49.8639 130.486 52.3408 130.353 53.7808 128.745C61.9708 119.623 73.7491 114.392 86.0869 114.392C98.46 114.392 110.234 119.619 118.389 128.741C119.16 129.605 120.232 130.044 121.304 130.044C122.232 130.044 123.167 129.715 123.914 129.05C125.523 127.606 125.66 125.137 124.22 123.525C114.582 112.748 100.683 106.565 86.0869 106.565Z" fill="#683901"/>
</svg>
