<svg width="244" height="295" viewBox="0 0 244 295" fill="none" xmlns="http://www.w3.org/2000/svg">
<path d="M83.6117 280H89.5117C90.9917 280 92.3051 280.293 93.4517 280.88C94.5984 281.467 95.4851 282.293 96.1117 283.36C96.7517 284.413 97.0717 285.627 97.0717 287C97.0717 288.373 96.7517 289.593 96.1117 290.66C95.4851 291.713 94.5984 292.533 93.4517 293.12C92.3051 293.707 90.9917 294 89.5117 294H83.6117V280ZM89.3917 292.26C90.5251 292.26 91.5184 292.04 92.3717 291.6C93.2384 291.16 93.9051 290.547 94.3717 289.76C94.8384 288.96 95.0717 288.04 95.0717 287C95.0717 285.96 94.8384 285.047 94.3717 284.26C93.9051 283.46 93.2384 282.84 92.3717 282.4C91.5184 281.96 90.5251 281.74 89.3917 281.74H85.6117V292.26H89.3917ZM100.135 280H102.135V294H100.135V280ZM110.407 294.16C109.353 294.16 108.333 294 107.347 293.68C106.373 293.347 105.607 292.92 105.047 292.4L105.787 290.84C106.32 291.32 107 291.713 107.827 292.02C108.667 292.313 109.527 292.46 110.407 292.46C111.567 292.46 112.433 292.267 113.007 291.88C113.58 291.48 113.867 290.953 113.867 290.3C113.867 289.82 113.707 289.433 113.387 289.14C113.08 288.833 112.693 288.6 112.227 288.44C111.773 288.28 111.127 288.1 110.287 287.9C109.233 287.647 108.38 287.393 107.727 287.14C107.087 286.887 106.533 286.5 106.067 285.98C105.613 285.447 105.387 284.733 105.387 283.84C105.387 283.093 105.58 282.42 105.967 281.82C106.367 281.22 106.967 280.74 107.767 280.38C108.567 280.02 109.56 279.84 110.747 279.84C111.573 279.84 112.387 279.947 113.187 280.16C113.987 280.373 114.673 280.68 115.247 281.08L114.587 282.68C114 282.307 113.373 282.027 112.707 281.84C112.04 281.64 111.387 281.54 110.747 281.54C109.613 281.54 108.76 281.747 108.187 282.16C107.627 282.573 107.347 283.107 107.347 283.76C107.347 284.24 107.507 284.633 107.827 284.94C108.147 285.233 108.54 285.467 109.007 285.64C109.487 285.8 110.133 285.973 110.947 286.16C112 286.413 112.847 286.667 113.487 286.92C114.127 287.173 114.673 287.56 115.127 288.08C115.593 288.6 115.827 289.3 115.827 290.18C115.827 290.913 115.627 291.587 115.227 292.2C114.827 292.8 114.22 293.28 113.407 293.64C112.593 293.987 111.593 294.16 110.407 294.16ZM118.748 280H120.748V292.26H128.328V294H118.748V280ZM130.623 280H132.623V294H130.623V280ZM141.375 287.78L138.815 290.38V294H136.815V280H138.815V287.82L146.415 280H148.695L142.715 286.3L149.075 294H146.735L141.375 287.78ZM161.35 292.26V294H151.19V280H161.07V281.74H153.19V286.04H160.21V287.74H153.19V292.26H161.35Z" fill="black"/>
<g clip-path="url(#clip0)">
<path d="M122.226 0.663043C55.4138 0.324312 0.977466 54.2115 0.638735 121.023C0.300004 187.835 54.1872 242.272 120.999 242.61C187.811 242.949 242.247 189.062 242.586 122.25C242.925 55.4381 189.038 1.00177 122.226 0.663043Z" fill="#FF4D4F"/>
<path d="M131.353 1.00258L199.154 69.4945L149.164 90.4026L91.0437 146.325L84.9298 190.138L1.59547 105.955C9.31168 46.2908 60.4597 0.300013 122.174 0.612898C125.267 0.628107 128.31 0.741843 131.353 1.00258Z" fill="#FF4D4F"/>
<path d="M135.589 133.982C133.555 138.095 128.407 146.318 117.574 152.547C102.457 161.21 96.8609 180.428 96.0973 185.776C95.3336 191.173 82.3891 197.441 80.9064 180.004C79.4237 162.567 90.0883 150.837 90.0883 150.837L53.5112 150.651C42.309 152.166 40.6346 133.843 51.6332 133.703L55.1198 133.672L55.2228 132.739L53.1115 132.729C44.2247 132.684 44.313 115.254 53.1998 115.299L53.6417 115.302C46.9758 113.058 47.4932 98.1845 55.7414 98.2263L58.098 98.2383L58.0983 98.1891C52.4587 96.933 53.0738 91.683 53.0959 87.3133C53.1333 79.9485 72.3005 76.167 77.1188 74.8661C91.0325 71.1562 109.324 75.4713 124.88 76.9738L134.645 78.1525L156.001 78.2608L155.718 134.084L135.54 133.981L135.589 133.982Z" fill="#FFC964"/>
<path d="M163.014 138.048L138.318 137.923L138.641 74.1464L163.337 74.2717L163.014 138.048Z" fill="white"/>
<path d="M198.779 143.238L154.789 143.015L155.163 69.2717L199.153 69.4948L198.779 143.238Z" fill="#006775"/>
</g>
<defs>
<clipPath id="clip0">
<rect x="241.996" y="243.224" width="242" height="242" transform="rotate(-179.71 241.996 243.224)" fill="white"/>
</clipPath>
</defs>
</svg>
