<svg width="242" height="302" viewBox="0 0 242 302" fill="none" xmlns="http://www.w3.org/2000/svg">
<path d="M98.1801 288H100.18V300.26H107.76V302H98.1801V288ZM110.055 288H112.055V302H110.055V288ZM120.806 295.78L118.246 298.38V302H116.246V288H118.246V295.82L125.846 288H128.126L122.146 294.3L128.506 302H126.166L120.806 295.78ZM140.781 300.26V302H130.621V288H140.501V289.74H132.621V294.04H139.641V295.74H132.621V300.26H140.781Z" fill="black"/>
<path d="M121.001 241.95C187.813 241.95 241.976 187.788 241.976 120.975C241.976 54.1624 187.813 0 121.001 0C54.1878 0 0.0253906 54.1624 0.0253906 120.975C0.0253906 187.788 54.1878 241.95 121.001 241.95Z" fill="#20BF55"/>
<path d="M111.87 241.657L43.7227 173.51L93.6055 152.348L151.442 96.1318L157.333 52.2881L241.093 136.048C233.68 195.75 182.766 242 121.051 242C117.958 242 114.914 241.902 111.87 241.657Z" fill="#20BF55"/>
<path d="M106.96 108.701C108.973 104.577 114.079 96.3289 124.88 90.0445C139.953 81.3055 145.452 62.0594 146.188 56.7075C146.925 51.3069 159.837 44.9733 161.408 62.4026C162.979 79.8318 152.374 91.6156 152.374 91.6156H188.952C200.146 90.0445 201.914 108.358 190.916 108.554L187.429 108.603L187.331 109.536H189.443C198.329 109.536 198.329 126.966 189.443 126.966H189.001C195.678 129.175 195.236 144.051 186.988 144.051H184.631V144.1C190.277 145.328 189.688 150.581 189.688 154.951C189.688 162.316 170.541 166.194 165.729 167.52C151.834 171.3 133.521 167.078 117.957 165.654L108.187 164.525H86.8301V108.701H107.009H106.96Z" fill="#FFC964"/>
<path d="M79.5137 104.773H104.21V168.551H79.5137V104.773Z" fill="white"/>
<path d="M43.7227 99.7656H87.7138V173.51H43.7227V99.7656Z" fill="#006775"/>
</svg>
