<?xml version="1.0" encoding="iso-8859-1"?>
<!-- Generator: Adobe Illustrator 19.0.0, SVG Export Plug-In . SVG Version: 6.00 Build 0)  -->
<svg version="1.1" id="Capa_1" xmlns="http://www.w3.org/2000/svg" xmlns:xlink="http://www.w3.org/1999/xlink" x="0px" y="0px"
	 viewBox="0 0 381.229 381.229" style="enable-background:new 0 0 381.229 381.229;" xml:space="preserve">
<g>
	<g>
		<path d="M365.604,194.348l-4-4c-1.846-1.849-3.824-3.56-5.92-5.12c34.473-36.353,33.781-93.531-1.56-129.04l0.16,0.2l-7.04-7.04
			c-36.121-35.926-94.479-35.926-130.6,0l-26.04,25.96l-26-26c-36.121-35.926-94.479-35.926-130.6,0l-7.04,7.04
			c-35.952,36.126-35.952,94.514,0,130.64l30.92,30.92l128,128c2.718,2.716,7.122,2.716,9.84,0l31.16-31.36l42.28,42.28
			c2.718,2.716,7.122,2.716,9.84,0l69.72-69.88l16.88-16.88C386.438,249.127,386.438,215.289,365.604,194.348z M190.604,330.988
			l-122.92-122.92l-30.92-30.92c-30.498-30.7-30.498-80.26,0-110.96l7.04-7.04c30.7-30.498,80.26-30.498,110.96,0l30.92,30.92
			c2.718,2.716,7.122,2.716,9.84,0l31.08-30.92c30.7-30.498,80.26-30.498,110.96,0l7.04,7.04c30.498,30.7,30.498,80.26,0,110.96
			l-0.16,0.16l-1.28,1.28c-19.743-7.584-42.098-2.887-57.12,12l-12,12l-12-12c-20.897-20.66-54.521-20.678-75.44-0.04l-4,4
			c-20.834,20.941-20.834,54.779,0,75.72l16.88,16.88l17.6,17.6L190.604,330.988z M355.764,260.388l-16.88,16.88l-64.8,64.8
			l-64.8-64.8l-16.88-16.88c-15.375-15.501-15.375-40.499,0-56l4-4c15.501-15.375,40.499-15.375,56,0l16.88,16.88
			c2.718,2.716,7.122,2.716,9.84,0l16.88-16.88c15.501-15.375,40.499-15.375,56,0l4,4c7.278,7.434,11.331,17.437,11.28,27.84
			l0.04,0.16C367.343,242.887,363.184,252.961,355.764,260.388z"/>
	</g>
</g>
<g>
</g>
<g>
</g>
<g>
</g>
<g>
</g>
<g>
</g>
<g>
</g>
<g>
</g>
<g>
</g>
<g>
</g>
<g>
</g>
<g>
</g>
<g>
</g>
<g>
</g>
<g>
</g>
<g>
</g>
</svg>
