<?xml version="1.0" encoding="iso-8859-1"?>
<!-- Generator: Adobe Illustrator 19.0.0, SVG Export Plug-In . SVG Version: 6.00 Build 0)  -->
<svg version="1.1" id="Capa_1" xmlns="http://www.w3.org/2000/svg" xmlns:xlink="http://www.w3.org/1999/xlink" x="0px" y="0px"
	 viewBox="0 0 381.12 381.12" style="enable-background:new 0 0 381.12 381.12;" xml:space="preserve">
<g>
	<g>
		<path d="M355.48,313.213c7.236-6.558,13.273-14.328,17.84-22.96c5.083-9.631,7.759-20.35,7.8-31.24
			c-0.289-17.883-7.268-35.009-19.56-48c3.807-7.177,6.838-14.74,9.04-22.56h0c2.612-9.269,3.958-18.85,4-28.48
			c0-39-21.28-74.2-55.64-99.52c-33.92-24.88-80.36-40.28-131.72-40.28c-51.36,0-97.84,15.4-131.6,40.28
			C21.24,85.773,0,120.973,0,159.973c0.052,17.637,4.375,34.998,12.6,50.6c8,15.186,18.756,28.75,31.72,40l-32.24,66.76
			c-1.686,3.43-0.273,7.577,3.156,9.263c2.15,1.057,4.693,0.927,6.724-0.343l72.64-44.76c11.24,4.759,22.853,8.585,34.72,11.44
			c12.252,2.966,24.716,4.972,37.28,6c5.834,8.207,12.968,15.408,21.12,21.32c23.312,16.322,51.185,24.862,79.64,24.4
			c10.117,0.006,20.208-1.013,30.12-3.04c8.417-1.715,16.653-4.219,24.6-7.48l41.72,25.76c3.24,2.027,7.51,1.044,9.537-2.196
			c1.27-2.031,1.4-4.574,0.343-6.724L355.48,313.213z M158.6,284.173c-8.805-1.059-17.54-2.635-26.16-4.72
			c-12.246-2.909-24.202-6.925-35.72-12c-2.174-0.976-4.698-0.765-6.68,0.56l-55.16,33.96l24.28-50.4
			c1.43-2.985,0.561-6.564-2.08-8.56c-13.158-10.659-24.04-23.854-32-38.8c-7.193-13.627-10.98-28.792-11.04-44.2
			c0-34.36,19.08-65.6,49.96-88.32c31.48-23.2,75.08-37.56,123.36-37.56c48.28,0,92,14.36,123.36,37.56
			c30.88,22.72,49.96,54,49.96,88.32c0.001,8.367-1.129,16.696-3.36,24.76c-1.548,5.498-3.569,10.851-6.04,16
			c-1.307-1.067-2.64-2.12-4-3.16c-23.312-16.322-51.185-24.861-79.64-24.4c-28.455-0.461-56.328,8.078-79.64,24.4
			c-21.08,15.52-34.12,37.2-34.12,61.24C153.792,267.519,155.395,276.12,158.6,284.173z M326.6,320.613
			c-1.982-1.325-4.505-1.536-6.68-0.56c-8.058,3.57-16.481,6.253-25.12,8c-8.992,1.826-18.145,2.737-27.32,2.72
			c-25.489,0.47-50.476-7.117-71.4-21.68c-17.48-12.96-28.48-30.52-28.48-50.08c0-19.56,11-37.08,28.44-50.04
			c20.924-14.563,45.911-22.15,71.4-21.68c25.488-0.467,50.475,7.119,71.4,21.68c17.6,12.96,28.44,30.64,28.44,50.04h-0.04
			c-0.03,8.672-2.157,17.208-6.2,24.88c-4.537,8.475-10.726,15.955-18.2,22c-2.675,1.989-3.564,5.596-2.12,8.6l10.2,21.16
			L326.6,320.613z"/>
	</g>
</g>
<g>
</g>
<g>
</g>
<g>
</g>
<g>
</g>
<g>
</g>
<g>
</g>
<g>
</g>
<g>
</g>
<g>
</g>
<g>
</g>
<g>
</g>
<g>
</g>
<g>
</g>
<g>
</g>
<g>
</g>
</svg>
