<svg width="244" height="295" viewBox="0 0 244 295" fill="none" xmlns="http://www.w3.org/2000/svg">
<path d="M118.341 281V295H116.341V288.76H108.301V295H106.301V281H108.301V287.02H116.341V281H118.341ZM132.867 293.26V295H122.707V281H132.587V282.74H124.707V287.04H131.727V288.74H124.707V293.26H132.867ZM145.628 282.74H140.828V295H138.868V282.74H134.088V281H145.628V282.74Z" fill="black"/>
<g clip-path="url(#clip0)">
<path d="M122.717 1.48189C55.9047 1.14316 1.4684 55.0303 1.12967 121.842C0.79094 188.654 54.6781 243.09 121.49 243.429C188.302 243.768 242.738 189.881 243.077 123.069C243.416 56.257 189.529 1.82062 122.717 1.48189Z" fill="#FF4D4F"/>
<path d="M131.844 1.82143L199.645 70.3133L149.655 91.2215L91.5348 147.144L85.4209 190.957L2.08656 106.774C9.80277 47.1096 60.9508 1.11886 122.665 1.43175C125.758 1.44695 128.801 1.56069 131.844 1.82143Z" fill="#FF4D4F"/>
<path d="M136.08 134.8C134.046 138.914 128.898 147.137 118.065 153.366C102.948 162.029 97.3519 181.247 96.5884 186.595C95.8246 191.991 82.8802 198.259 81.3974 180.823C79.9147 163.386 90.5793 151.656 90.5793 151.656L54.0023 151.47C42.8 152.985 41.1256 134.662 52.1243 134.522L55.6108 134.49L55.7139 133.558L53.6025 133.548C44.7157 133.503 44.8041 116.073 53.6909 116.118L54.1328 116.12C47.4669 113.877 47.9842 99.0034 56.2325 99.0452L58.5891 99.0571L58.5893 99.008C52.9497 97.7519 53.5648 92.5018 53.587 88.1322C53.6243 80.7673 72.7915 76.9858 77.6099 75.6849C91.5235 71.9751 109.815 76.2901 125.371 77.7926L135.136 78.9713L156.492 79.0796L156.209 134.903L136.031 134.8L136.08 134.8Z" fill="#FFC964"/>
<path d="M163.505 138.867L138.81 138.742L139.133 74.9653L163.829 75.0905L163.505 138.867Z" fill="white"/>
<path d="M199.271 144.057L155.28 143.834L155.654 70.0906L199.645 70.3136L199.271 144.057Z" fill="#006775"/>
</g>
<defs>
<clipPath id="clip0">
<rect width="242" height="242" fill="white" transform="translate(242.487 244.042) rotate(-179.71)"/>
</clipPath>
</defs>
</svg>
