<svg width="242" height="295" viewBox="0 0 242 295" fill="none" xmlns="http://www.w3.org/2000/svg">
<path d="M140.162 177.363V209.354C140.162 219.517 131.618 227.849 121.197 227.849C110.752 227.849 102.232 219.517 102.232 209.354V168.068C102.232 139.363 158.962 157.342 156.544 109.672C155.464 88.407 135.232 72.189 116.596 73.08C97.936 73.995 86.647 83.196 80.826 96.176C72.4 113.592 46.206 102.49 50.971 88.055C51.699 84.839 63.974 43.155 114.719 40.714C154.855 38.789 187.738 72.987 189.522 108.053C191.282 143.119 168.092 166.355 140.162 177.363ZM118.897 232.872H123.497C132.674 232.872 140.162 240.172 140.162 249.114C140.162 258.057 132.675 265.356 123.497 265.356H118.897C109.72 265.356 102.232 258.056 102.232 249.114C102.232 240.172 109.72 232.872 118.897 232.872Z" fill="#F8F8F8"/>
<path d="M78.4912 280V294H76.5112V288.46C75.0312 289.033 73.6645 289.32 72.4112 289.32C70.7045 289.32 69.3778 288.907 68.4312 288.08C67.4978 287.253 67.0312 286.073 67.0312 284.54V280H68.9912V284.32C68.9912 285.36 69.3045 286.16 69.9312 286.72C70.5712 287.28 71.4712 287.56 72.6312 287.56C73.9245 287.56 75.2178 287.267 76.5112 286.68V280H78.4912ZM91.9577 290.5H84.5177L82.9777 294H80.9177L87.2577 280H89.2377L95.5977 294H93.4977L91.9577 290.5ZM91.2577 288.9L88.2377 282.04L85.2177 288.9H91.2577ZM104.079 294.16C102.679 294.16 101.412 293.853 100.279 293.24C99.1587 292.613 98.2787 291.76 97.6387 290.68C96.9987 289.587 96.6787 288.36 96.6787 287C96.6787 285.64 96.9987 284.42 97.6387 283.34C98.2787 282.247 99.1653 281.393 100.299 280.78C101.432 280.153 102.699 279.84 104.099 279.84C105.192 279.84 106.192 280.027 107.099 280.4C108.005 280.76 108.779 281.3 109.419 282.02L108.119 283.28C107.065 282.173 105.752 281.62 104.179 281.62C103.139 281.62 102.199 281.853 101.359 282.32C100.519 282.787 99.8587 283.433 99.3787 284.26C98.912 285.073 98.6787 285.987 98.6787 287C98.6787 288.013 98.912 288.933 99.3787 289.76C99.8587 290.573 100.519 291.213 101.359 291.68C102.199 292.147 103.139 292.38 104.179 292.38C105.739 292.38 107.052 291.82 108.119 290.7L109.419 291.96C108.779 292.68 107.999 293.227 107.079 293.6C106.172 293.973 105.172 294.16 104.079 294.16ZM121.638 281.74H116.838V294H114.878V281.74H110.098V280H121.638V281.74ZM124.069 280H126.049V290.8L134.329 280H136.169V294H134.209V283.22L125.909 294H124.069V280ZM150.503 280V294H148.523V288.46C147.043 289.033 145.676 289.32 144.423 289.32C142.716 289.32 141.39 288.907 140.443 288.08C139.51 287.253 139.043 286.073 139.043 284.54V280H141.003V284.32C141.003 285.36 141.316 286.16 141.943 286.72C142.583 287.28 143.483 287.56 144.643 287.56C145.936 287.56 147.23 287.267 148.523 286.68V280H150.503ZM166.909 280V294H164.909V287.76H156.869V294H154.869V280H156.869V286.02H164.909V280H166.909ZM177.576 294.16C176.162 294.16 174.889 293.853 173.756 293.24C172.622 292.613 171.729 291.753 171.076 290.66C170.436 289.567 170.116 288.347 170.116 287C170.116 285.653 170.436 284.433 171.076 283.34C171.729 282.247 172.622 281.393 173.756 280.78C174.889 280.153 176.162 279.84 177.576 279.84C178.976 279.84 180.242 280.153 181.376 280.78C182.509 281.393 183.396 282.247 184.036 283.34C184.676 284.42 184.996 285.64 184.996 287C184.996 288.36 184.676 289.587 184.036 290.68C183.396 291.76 182.509 292.613 181.376 293.24C180.242 293.853 178.976 294.16 177.576 294.16ZM177.576 292.38C178.602 292.38 179.522 292.147 180.336 291.68C181.162 291.213 181.809 290.573 182.276 289.76C182.756 288.933 182.996 288.013 182.996 287C182.996 285.987 182.756 285.073 182.276 284.26C181.809 283.433 181.162 282.787 180.336 282.32C179.522 281.853 178.602 281.62 177.576 281.62C176.549 281.62 175.616 281.853 174.776 282.32C173.949 282.787 173.296 283.433 172.816 284.26C172.349 285.073 172.116 285.987 172.116 287C172.116 288.013 172.349 288.933 172.816 289.76C173.296 290.573 173.949 291.213 174.776 291.68C175.616 292.147 176.549 292.38 177.576 292.38Z" fill="black"/>
<path d="M121 242C187.826 242 242 187.826 242 121C242 54.1735 187.826 0 121 0C54.1735 0 0 54.1735 0 121C0 187.826 54.1735 242 121 242Z" fill="#E6EA18"/>
<path d="M130.555 132.494V147.584C130.555 152.378 126.505 156.308 121.565 156.308C116.613 156.308 112.574 152.378 112.574 147.584V128.109C112.574 114.569 139.468 123.05 138.322 100.564C137.81 90.5333 128.218 82.8833 119.383 83.3036C110.537 83.7352 105.185 88.0753 102.426 94.198C98.4313 102.413 86.0134 97.1763 88.2724 90.3673C88.6175 88.8503 94.4367 69.188 118.493 68.0366C137.521 67.1286 153.11 83.2597 153.955 99.8003C154.79 116.341 143.796 127.301 130.555 132.494ZM120.474 158.677H122.655C127.005 158.677 130.555 162.121 130.555 166.339C130.555 170.557 127.006 174 122.655 174H120.474C116.124 174 112.574 170.557 112.574 166.339C112.574 162.121 116.124 158.677 120.474 158.677Z" fill="#F8F8F8"/>
</svg>
