<svg width="186" height="65" viewBox="0 0 186 65" fill="none" xmlns="http://www.w3.org/2000/svg">
<rect width="186" height="65" rx="14" fill="white"/>
<path d="M41.3756 47.32C39.269 47.32 37.229 47 35.2556 46.36C33.309 45.6933 31.7756 44.84 30.6556 43.8L32.1356 40.68C33.2023 41.64 34.5623 42.4267 36.2156 43.04C37.8956 43.6267 39.6156 43.92 41.3756 43.92C43.6956 43.92 45.429 43.5333 46.5756 42.76C47.7223 41.96 48.2956 40.9067 48.2956 39.6C48.2956 38.64 47.9756 37.8667 47.3356 37.28C46.7223 36.6667 45.949 36.2 45.0156 35.88C44.109 35.56 42.8156 35.2 41.1356 34.8C39.029 34.2933 37.3223 33.7867 36.0156 33.28C34.7356 32.7733 33.629 32 32.6956 30.96C31.789 29.8933 31.3356 28.4667 31.3356 26.68C31.3356 25.1867 31.7223 23.84 32.4956 22.64C33.2956 21.44 34.4956 20.48 36.0956 19.76C37.6956 19.04 39.6823 18.68 42.0556 18.68C43.709 18.68 45.3356 18.8933 46.9356 19.32C48.5356 19.7467 49.909 20.36 51.0556 21.16L49.7356 24.36C48.5623 23.6133 47.309 23.0533 45.9756 22.68C44.6423 22.28 43.3356 22.08 42.0556 22.08C39.789 22.08 38.0823 22.4933 36.9356 23.32C35.8156 24.1467 35.2556 25.2133 35.2556 26.52C35.2556 27.48 35.5756 28.2667 36.2156 28.88C36.8556 29.4667 37.6423 29.9333 38.5756 30.28C39.5356 30.6 40.829 30.9467 42.4556 31.32C44.5623 31.8267 46.2556 32.3333 47.5356 32.84C48.8156 33.3467 49.909 34.12 50.8156 35.16C51.749 36.2 52.2156 37.6 52.2156 39.36C52.2156 40.8267 51.8156 42.1733 51.0156 43.4C50.2156 44.6 49.0023 45.56 47.3756 46.28C45.749 46.9733 43.749 47.32 41.3756 47.32ZM63.2288 22.48H53.6288V19H76.7888V22.48H67.1888V47H63.2288V22.48ZM97.5791 40H82.6991L79.6191 47H75.4991L88.1791 19H92.1391L104.859 47H100.659L97.5791 40ZM96.1791 36.8L90.1391 23.08L84.0991 36.8H96.1791ZM127.756 47L121.716 38.4C120.969 38.4533 120.383 38.48 119.956 38.48H113.036V47H109.036V19H119.956C123.583 19 126.436 19.8667 128.516 21.6C130.596 23.3333 131.636 25.72 131.636 28.76C131.636 30.92 131.103 32.76 130.036 34.28C128.969 35.8 127.449 36.9067 125.476 37.6L132.116 47H127.756ZM119.836 35.08C122.369 35.08 124.303 34.5333 125.636 33.44C126.969 32.3467 127.636 30.7867 127.636 28.76C127.636 26.7333 126.969 25.1867 125.636 24.12C124.303 23.0267 122.369 22.48 119.836 22.48H113.036V35.08H119.836ZM143.268 22.48H133.668V19H156.828V22.48H147.228V47H143.268V22.48Z" fill="black"/>
</svg>
