<svg width="180" height="222" viewBox="0 0 180 222" fill="none" xmlns="http://www.w3.org/2000/svg">
<path d="M89.2178 212.58C91.2178 212.58 92.6845 212.96 93.6178 213.72C94.5645 214.467 95.0378 215.493 95.0378 216.8C95.0378 217.627 94.8378 218.373 94.4378 219.04C94.0511 219.693 93.4578 220.213 92.6578 220.6C91.8711 220.973 90.8978 221.16 89.7378 221.16C88.7511 221.16 87.7978 221.013 86.8778 220.72C85.9578 220.413 85.1978 219.993 84.5978 219.46L85.5178 217.88C85.9978 218.333 86.6111 218.7 87.3578 218.98C88.1045 219.247 88.8911 219.38 89.7178 219.38C90.7711 219.38 91.5845 219.16 92.1578 218.72C92.7445 218.267 93.0378 217.653 93.0378 216.88C93.0378 216.04 92.7178 215.407 92.0778 214.98C91.4378 214.54 90.3445 214.32 88.7978 214.32H85.6178L86.3578 207H94.2578V208.74H88.0378L87.6578 212.58H89.2178Z" fill="black"/>
<path d="M90 3.91309C137.543 3.91309 176.087 42.4566 176.087 90.0001C176.087 137.544 137.543 176.087 90 176.087C42.4565 176.087 3.91302 137.544 3.91302 90.0001C3.91302 42.4566 42.4565 3.91309 90 3.91309ZM129.13 105.652H50.8695C50.8695 127.252 68.4 144.783 90 144.783C111.6 144.783 129.13 127.252 129.13 105.652ZM129.13 66.5218C129.13 62.2174 125.609 58.6957 121.304 58.6957C117 58.6957 113.478 62.2174 113.478 66.5218C113.478 70.8261 117 74.3479 121.304 74.3479C125.609 74.3479 129.13 70.8261 129.13 66.5218ZM66.5217 66.5218C66.5217 62.2174 63 58.6957 58.6956 58.6957C54.3913 58.6957 50.8695 62.2174 50.8695 66.5218C50.8695 70.8261 54.3913 74.3479 58.6956 74.3479C63 74.3479 66.5217 70.8261 66.5217 66.5218Z" fill="#20BF55"/>
<path d="M121.304 74.348C125.627 74.348 129.13 70.8441 129.13 66.5219C129.13 62.1997 125.627 58.6958 121.304 58.6958C116.982 58.6958 113.478 62.1997 113.478 66.5219C113.478 70.8441 116.982 74.348 121.304 74.348Z" fill="#20BF55"/>
<path d="M58.6957 74.348C63.0179 74.348 66.5217 70.8441 66.5217 66.5219C66.5217 62.1997 63.0179 58.6958 58.6957 58.6958C54.3734 58.6958 50.8696 62.1997 50.8696 66.5219C50.8696 70.8441 54.3734 74.348 58.6957 74.348Z" fill="#20BF55"/>
<path d="M121.304 78.261C127.776 78.261 133.043 72.994 133.043 66.5218C133.043 60.0497 127.776 54.7827 121.304 54.7827C114.832 54.7827 109.565 60.0497 109.565 66.5218C109.565 72.994 114.832 78.261 121.304 78.261ZM121.304 62.6088C123.464 62.6088 125.217 64.3658 125.217 66.5218C125.217 68.6779 123.464 70.4349 121.304 70.4349C119.144 70.4349 117.391 68.6779 117.391 66.5218C117.391 64.3658 119.144 62.6088 121.304 62.6088Z" fill="#1C5700"/>
<path d="M58.6956 78.261C65.1678 78.261 70.4347 72.994 70.4347 66.5218C70.4347 60.0497 65.1678 54.7827 58.6956 54.7827C52.2234 54.7827 46.9565 60.0497 46.9565 66.5218C46.9565 72.994 52.2234 78.261 58.6956 78.261ZM58.6956 62.6088C60.8556 62.6088 62.6087 64.3658 62.6087 66.5218C62.6087 68.6779 60.8556 70.4349 58.6956 70.4349C56.5356 70.4349 54.7826 68.6779 54.7826 66.5218C54.7826 64.3658 56.5356 62.6088 58.6956 62.6088Z" fill="#1C5700"/>
<path d="M90 148.696C113.733 148.696 133.043 129.385 133.043 105.652C133.043 103.492 131.294 101.739 129.13 101.739H50.8695C48.7056 101.739 46.9565 103.492 46.9565 105.652C46.9565 129.385 66.2674 148.696 90 148.696ZM124.998 109.565C123.046 127.151 108.098 140.87 90 140.87C71.9021 140.87 56.9543 127.151 55.0017 109.565H124.998Z" fill="#1C5700"/>
</svg>
