<svg width="173" height="240" viewBox="0 0 173 240" fill="none" xmlns="http://www.w3.org/2000/svg">
<path d="M68.6351 228.4V239H66.7151V230.08H60.7351V239H58.8151V228.4H68.6351ZM81.4502 228.4V239H79.5302V230.08H74.9702L74.8502 232.44C74.7836 233.867 74.6569 235.06 74.4702 236.02C74.2836 236.967 73.9769 237.727 73.5502 238.3C73.1236 238.873 72.5302 239.16 71.7702 239.16C71.4236 239.16 71.0302 239.1 70.5902 238.98L70.7102 237.36C70.8836 237.4 71.0436 237.42 71.1902 237.42C71.7236 237.42 72.1236 237.187 72.3902 236.72C72.6569 236.253 72.8302 235.7 72.9102 235.06C72.9902 234.42 73.0636 233.507 73.1302 232.32L73.3102 228.4H81.4502ZM89.7027 239.12C88.6494 239.12 87.7027 238.887 86.8627 238.42C86.0227 237.953 85.3627 237.313 84.8827 236.5C84.4161 235.673 84.1827 234.74 84.1827 233.7C84.1827 232.66 84.4161 231.733 84.8827 230.92C85.3627 230.093 86.0227 229.453 86.8627 229C87.7027 228.533 88.6494 228.3 89.7027 228.3C90.7561 228.3 91.6961 228.533 92.5227 229C93.3627 229.453 94.0161 230.093 94.4827 230.92C94.9627 231.733 95.2027 232.66 95.2027 233.7C95.2027 234.74 94.9627 235.673 94.4827 236.5C94.0161 237.313 93.3627 237.953 92.5227 238.42C91.6961 238.887 90.7561 239.12 89.7027 239.12ZM89.7027 237.44C90.3827 237.44 90.9894 237.287 91.5227 236.98C92.0694 236.66 92.4961 236.22 92.8027 235.66C93.1094 235.087 93.2627 234.433 93.2627 233.7C93.2627 232.967 93.1094 232.32 92.8027 231.76C92.4961 231.187 92.0694 230.747 91.5227 230.44C90.9894 230.133 90.3827 229.98 89.7027 229.98C89.0227 229.98 88.4094 230.133 87.8627 230.44C87.3294 230.747 86.9027 231.187 86.5827 231.76C86.2761 232.32 86.1227 232.967 86.1227 233.7C86.1227 234.433 86.2761 235.087 86.5827 235.66C86.9027 236.22 87.3294 236.66 87.8627 236.98C88.4094 237.287 89.0227 237.44 89.7027 237.44ZM104.244 239L101.184 234.94L98.0837 239H95.9437L100.124 233.58L96.1437 228.4H98.2837L101.204 232.22L104.104 228.4H106.204L102.204 233.58L106.424 239H104.244ZM112.632 239.12C111.579 239.12 110.632 238.887 109.792 238.42C108.952 237.953 108.292 237.313 107.812 236.5C107.346 235.673 107.112 234.74 107.112 233.7C107.112 232.66 107.346 231.733 107.812 230.92C108.292 230.093 108.952 229.453 109.792 229C110.632 228.533 111.579 228.3 112.632 228.3C113.686 228.3 114.626 228.533 115.452 229C116.292 229.453 116.946 230.093 117.412 230.92C117.892 231.733 118.132 232.66 118.132 233.7C118.132 234.74 117.892 235.673 117.412 236.5C116.946 237.313 116.292 237.953 115.452 238.42C114.626 238.887 113.686 239.12 112.632 239.12ZM112.632 237.44C113.312 237.44 113.919 237.287 114.452 236.98C114.999 236.66 115.426 236.22 115.732 235.66C116.039 235.087 116.192 234.433 116.192 233.7C116.192 232.967 116.039 232.32 115.732 231.76C115.426 231.187 114.999 230.747 114.452 230.44C113.919 230.133 113.312 229.98 112.632 229.98C111.952 229.98 111.339 230.133 110.792 230.44C110.259 230.747 109.832 231.187 109.512 231.76C109.206 232.32 109.052 232.967 109.052 233.7C109.052 234.433 109.206 235.087 109.512 235.66C109.832 236.22 110.259 236.66 110.792 236.98C111.339 237.287 111.952 237.44 112.632 237.44Z" fill="black"/>
<path d="M86.087 0.913086C133.63 0.913086 172.174 39.4566 172.174 87C172.174 134.544 133.63 173.087 86.087 173.087C38.5435 173.087 0 134.544 0 87C0 39.4566 38.5435 0.913086 86.087 0.913086ZM125.217 71.3479C125.217 67.0435 121.696 63.5218 117.391 63.5218C113.087 63.5218 109.565 67.0435 109.565 71.3479C109.565 75.6522 113.087 79.174 117.391 79.174C121.696 79.174 125.217 75.6522 125.217 71.3479ZM62.6087 71.3479C62.6087 67.0435 59.087 63.5218 54.7826 63.5218C50.4783 63.5218 46.9565 67.0435 46.9565 71.3479C46.9565 75.6522 50.4783 79.174 54.7826 79.174C59.087 79.174 62.6087 75.6522 62.6087 71.3479Z" fill="#FE8D26"/>
<path d="M117.391 79.1741C121.714 79.1741 125.217 75.6703 125.217 71.3481C125.217 67.0258 121.714 63.522 117.391 63.522C113.069 63.522 109.565 67.0258 109.565 71.3481C109.565 75.6703 113.069 79.1741 117.391 79.1741Z" fill="#FE8D26"/>
<path d="M54.7826 79.1741C59.1048 79.1741 62.6087 75.6703 62.6087 71.3481C62.6087 67.0258 59.1048 63.522 54.7826 63.522C50.4603 63.522 46.9565 67.0258 46.9565 71.3481C46.9565 75.6703 50.4603 79.1741 54.7826 79.1741Z" fill="#FE8D26"/>
<path d="M66.5217 71.348C66.5217 64.8758 61.2548 59.6089 54.7826 59.6089C48.3104 59.6089 43.0435 64.8758 43.0435 71.348C43.0435 77.8202 48.3104 83.0871 54.7826 83.0871C61.2548 83.0871 66.5217 77.8202 66.5217 71.348ZM50.8695 71.348C50.8695 69.1919 52.6265 67.435 54.7826 67.435C56.9387 67.435 58.6956 69.1919 58.6956 71.348C58.6956 73.5041 56.9387 75.2611 54.7826 75.2611C52.6265 75.2611 50.8695 73.5041 50.8695 71.348Z" fill="#683901"/>
<path d="M117.391 59.6089C110.919 59.6089 105.652 64.8758 105.652 71.348C105.652 77.8202 110.919 83.0871 117.391 83.0871C123.863 83.0871 129.13 77.8202 129.13 71.348C129.13 64.8758 123.863 59.6089 117.391 59.6089ZM117.391 75.2611C115.231 75.2611 113.478 73.5041 113.478 71.348C113.478 69.1919 115.231 67.435 117.391 67.435C119.551 67.435 121.304 69.1919 121.304 71.348C121.304 73.5041 119.551 75.2611 117.391 75.2611Z" fill="#683901"/>
<path d="M86.0869 106.565C71.5304 106.565 57.6313 112.744 47.9582 123.517C46.5143 125.125 46.6474 127.598 48.2556 129.042C49.8639 130.486 52.3408 130.353 53.7808 128.745C61.9708 119.623 73.7491 114.392 86.0869 114.392C98.46 114.392 110.234 119.619 118.389 128.741C119.16 129.605 120.232 130.044 121.304 130.044C122.232 130.044 123.167 129.715 123.914 129.05C125.523 127.606 125.66 125.137 124.22 123.525C114.582 112.748 100.683 106.565 86.0869 106.565Z" fill="#683901"/>
</svg>
