<svg width="180" height="246" viewBox="0 0 180 246" fill="none" xmlns="http://www.w3.org/2000/svg">
<path d="M34.5241 231.4H36.4441V235.9H42.4841V231.4H44.4041V242H42.4841V237.56H36.4441V242H34.5241V231.4ZM52.6773 242.12C51.624 242.12 50.6773 241.887 49.8373 241.42C48.9973 240.953 48.3373 240.313 47.8573 239.5C47.3907 238.673 47.1573 237.74 47.1573 236.7C47.1573 235.66 47.3907 234.733 47.8573 233.92C48.3373 233.093 48.9973 232.453 49.8373 232C50.6773 231.533 51.624 231.3 52.6773 231.3C53.7307 231.3 54.6707 231.533 55.4973 232C56.3373 232.453 56.9907 233.093 57.4573 233.92C57.9373 234.733 58.1773 235.66 58.1773 236.7C58.1773 237.74 57.9373 238.673 57.4573 239.5C56.9907 240.313 56.3373 240.953 55.4973 241.42C54.6707 241.887 53.7307 242.12 52.6773 242.12ZM52.6773 240.44C53.3573 240.44 53.964 240.287 54.4973 239.98C55.044 239.66 55.4707 239.22 55.7773 238.66C56.084 238.087 56.2373 237.433 56.2373 236.7C56.2373 235.967 56.084 235.32 55.7773 234.76C55.4707 234.187 55.044 233.747 54.4973 233.44C53.964 233.133 53.3573 232.98 52.6773 232.98C51.9973 232.98 51.384 233.133 50.8373 233.44C50.304 233.747 49.8773 234.187 49.5573 234.76C49.2507 235.32 49.0973 235.967 49.0973 236.7C49.0973 237.433 49.2507 238.087 49.5573 238.66C49.8773 239.22 50.304 239.66 50.8373 239.98C51.384 240.287 51.9973 240.44 52.6773 240.44ZM66.5698 231.3C67.5965 231.3 68.5165 231.527 69.3298 231.98C70.1432 232.433 70.7765 233.067 71.2298 233.88C71.6965 234.693 71.9298 235.633 71.9298 236.7C71.9298 237.767 71.6965 238.713 71.2298 239.54C70.7765 240.353 70.1432 240.987 69.3298 241.44C68.5165 241.893 67.5965 242.12 66.5698 242.12C65.8098 242.12 65.1098 241.973 64.4698 241.68C63.8432 241.387 63.3098 240.96 62.8698 240.4V245.88H60.9498V231.4H62.7898V233.08C63.2165 232.493 63.7565 232.053 64.4098 231.76C65.0632 231.453 65.7832 231.3 66.5698 231.3ZM66.4098 240.44C67.0898 240.44 67.6965 240.287 68.2298 239.98C68.7765 239.66 69.2032 239.22 69.5098 238.66C69.8298 238.087 69.9898 237.433 69.9898 236.7C69.9898 235.967 69.8298 235.32 69.5098 234.76C69.2032 234.187 68.7765 233.747 68.2298 233.44C67.6965 233.133 67.0898 232.98 66.4098 232.98C65.7432 232.98 65.1365 233.14 64.5898 233.46C64.0565 233.767 63.6298 234.2 63.3098 234.76C63.0032 235.32 62.8498 235.967 62.8498 236.7C62.8498 237.433 63.0032 238.087 63.3098 238.66C63.6165 239.22 64.0432 239.66 64.5898 239.98C65.1365 240.287 65.7432 240.44 66.4098 240.44ZM86.9394 231.4V242H85.1994V234.26L81.2394 240.8H80.3994L76.4794 234.24V242H74.7194V231.4H76.6994L80.8594 238.56L85.1394 231.4H86.9394ZM94.4564 231.3C95.9231 231.3 97.0431 231.66 97.8164 232.38C98.6031 233.1 98.9964 234.173 98.9964 235.6V242H97.1764V240.6C96.8564 241.093 96.3964 241.473 95.7964 241.74C95.2097 241.993 94.5097 242.12 93.6964 242.12C92.5097 242.12 91.5564 241.833 90.8364 241.26C90.1297 240.687 89.7764 239.933 89.7764 239C89.7764 238.067 90.1164 237.32 90.7964 236.76C91.4764 236.187 92.5564 235.9 94.0364 235.9H97.0764V235.52C97.0764 234.693 96.8364 234.06 96.3564 233.62C95.8764 233.18 95.1697 232.96 94.2364 232.96C93.6097 232.96 92.9964 233.067 92.3964 233.28C91.7964 233.48 91.2897 233.753 90.8764 234.1L90.0764 232.66C90.6231 232.22 91.2764 231.887 92.0364 231.66C92.7964 231.42 93.6031 231.3 94.4564 231.3ZM94.0164 240.64C94.7497 240.64 95.3831 240.48 95.9164 240.16C96.4497 239.827 96.8364 239.36 97.0764 238.76V237.28H94.1164C92.4897 237.28 91.6764 237.827 91.6764 238.92C91.6764 239.453 91.8831 239.873 92.2964 240.18C92.7097 240.487 93.2831 240.64 94.0164 240.64ZM111.554 231.4V242H109.634V233.08H105.074L104.954 235.44C104.887 236.867 104.76 238.06 104.574 239.02C104.387 239.967 104.08 240.727 103.654 241.3C103.227 241.873 102.634 242.16 101.874 242.16C101.527 242.16 101.134 242.1 100.694 241.98L100.814 240.36C100.987 240.4 101.147 240.42 101.294 240.42C101.827 240.42 102.227 240.187 102.494 239.72C102.76 239.253 102.934 238.7 103.014 238.06C103.094 237.42 103.167 236.507 103.234 235.32L103.414 231.4H111.554ZM120.166 235C121.513 235.013 122.54 235.32 123.246 235.92C123.953 236.52 124.306 237.367 124.306 238.46C124.306 239.607 123.92 240.493 123.146 241.12C122.386 241.733 121.293 242.033 119.866 242.02L115.266 242V231.4H117.186V234.98L120.166 235ZM119.706 240.56C120.573 240.573 121.226 240.4 121.666 240.04C122.12 239.68 122.346 239.147 122.346 238.44C122.346 237.747 122.126 237.24 121.686 236.92C121.26 236.6 120.6 236.433 119.706 236.42L117.186 236.38V240.54L119.706 240.56ZM126.77 231.4H128.69V235.9H134.73V231.4H136.65V242H134.73V237.56H128.69V242H126.77V231.4ZM144.923 242.12C143.87 242.12 142.923 241.887 142.083 241.42C141.243 240.953 140.583 240.313 140.103 239.5C139.637 238.673 139.403 237.74 139.403 236.7C139.403 235.66 139.637 234.733 140.103 233.92C140.583 233.093 141.243 232.453 142.083 232C142.923 231.533 143.87 231.3 144.923 231.3C145.977 231.3 146.917 231.533 147.743 232C148.583 232.453 149.237 233.093 149.703 233.92C150.183 234.733 150.423 235.66 150.423 236.7C150.423 237.74 150.183 238.673 149.703 239.5C149.237 240.313 148.583 240.953 147.743 241.42C146.917 241.887 145.977 242.12 144.923 242.12ZM144.923 240.44C145.603 240.44 146.21 240.287 146.743 239.98C147.29 239.66 147.717 239.22 148.023 238.66C148.33 238.087 148.483 237.433 148.483 236.7C148.483 235.967 148.33 235.32 148.023 234.76C147.717 234.187 147.29 233.747 146.743 233.44C146.21 233.133 145.603 232.98 144.923 232.98C144.243 232.98 143.63 233.133 143.083 233.44C142.55 233.747 142.123 234.187 141.803 234.76C141.497 235.32 141.343 235.967 141.343 236.7C141.343 237.433 141.497 238.087 141.803 238.66C142.123 239.22 142.55 239.66 143.083 239.98C143.63 240.287 144.243 240.44 144.923 240.44Z" fill="black"/>
<path d="M90 3.91309C137.543 3.91309 176.087 42.4566 176.087 90C176.087 137.544 137.543 176.087 90 176.087C42.4565 176.087 3.91302 137.544 3.91302 90C3.91302 42.4566 42.4565 3.91309 90 3.91309ZM129.13 74.3479C129.13 70.0435 125.609 66.5218 121.304 66.5218C117 66.5218 113.478 70.0435 113.478 74.3479C113.478 78.6522 117 82.174 121.304 82.174C125.609 82.174 129.13 78.6522 129.13 74.3479ZM66.5217 74.3479C66.5217 70.0435 63 66.5218 58.6956 66.5218C54.3913 66.5218 50.8695 70.0435 50.8695 74.3479C50.8695 78.6522 54.3913 82.174 58.6956 82.174C63 82.174 66.5217 78.6522 66.5217 74.3479Z" fill="#E6EA18"/>
<path d="M121.304 82.1741C125.627 82.1741 129.13 78.6703 129.13 74.3481C129.13 70.0258 125.627 66.522 121.304 66.522C116.982 66.522 113.478 70.0258 113.478 74.3481C113.478 78.6703 116.982 82.1741 121.304 82.1741Z" fill="#E6EA18"/>
<path d="M58.6957 82.1741C63.0179 82.1741 66.5217 78.6703 66.5217 74.3481C66.5217 70.0258 63.0179 66.522 58.6957 66.522C54.3734 66.522 50.8696 70.0258 50.8696 74.3481C50.8696 78.6703 54.3734 82.1741 58.6957 82.1741Z" fill="#E6EA18"/>
<path d="M58.6956 86.0871C65.1678 86.0871 70.4347 80.8202 70.4347 74.348C70.4347 67.8758 65.1678 62.6089 58.6956 62.6089C52.2234 62.6089 46.9565 67.8758 46.9565 74.348C46.9565 80.8202 52.2234 86.0871 58.6956 86.0871ZM58.6956 70.435C60.8517 70.435 62.6087 72.1919 62.6087 74.348C62.6087 76.5041 60.8517 78.2611 58.6956 78.2611C56.5395 78.2611 54.7826 76.5041 54.7826 74.348C54.7826 72.1919 56.5395 70.435 58.6956 70.435Z" fill="#635301"/>
<path d="M121.304 62.6089C114.832 62.6089 109.565 67.8758 109.565 74.348C109.565 80.8202 114.832 86.0871 121.304 86.0871C127.776 86.0871 133.043 80.8202 133.043 74.348C133.043 67.8758 127.776 62.6089 121.304 62.6089ZM121.304 78.2611C119.148 78.2611 117.391 76.5041 117.391 74.348C117.391 72.1919 119.148 70.435 121.304 70.435C123.46 70.435 125.217 72.1919 125.217 74.348C125.217 76.5041 123.46 78.2611 121.304 78.2611Z" fill="#635301"/>
<path d="M129.13 109.565H50.8695C48.7095 109.565 46.9565 111.318 46.9565 113.478C46.9565 115.638 48.7095 117.392 50.8695 117.392H129.13C131.29 117.392 133.043 115.638 133.043 113.478C133.043 111.318 131.29 109.565 129.13 109.565Z" fill="#635301"/>
</svg>
