<svg width="176" height="242" viewBox="0 0 176 242" fill="none" xmlns="http://www.w3.org/2000/svg">
<path d="M57.728 238L54.668 233.94L51.568 238H49.428L53.608 232.58L49.628 227.4H51.768L54.688 231.22L57.588 227.4H59.688L55.688 232.58L59.908 238H57.728ZM66.1168 238.12C65.0635 238.12 64.1168 237.887 63.2768 237.42C62.4368 236.953 61.7768 236.313 61.2968 235.5C60.8301 234.673 60.5968 233.74 60.5968 232.7C60.5968 231.66 60.8301 230.733 61.2968 229.92C61.7768 229.093 62.4368 228.453 63.2768 228C64.1168 227.533 65.0635 227.3 66.1168 227.3C67.1701 227.3 68.1101 227.533 68.9368 228C69.7768 228.453 70.4301 229.093 70.8968 229.92C71.3768 230.733 71.6168 231.66 71.6168 232.7C71.6168 233.74 71.3768 234.673 70.8968 235.5C70.4301 236.313 69.7768 236.953 68.9368 237.42C68.1101 237.887 67.1701 238.12 66.1168 238.12ZM66.1168 236.44C66.7968 236.44 67.4035 236.287 67.9368 235.98C68.4835 235.66 68.9101 235.22 69.2168 234.66C69.5235 234.087 69.6768 233.433 69.6768 232.7C69.6768 231.967 69.5235 231.32 69.2168 230.76C68.9101 230.187 68.4835 229.747 67.9368 229.44C67.4035 229.133 66.7968 228.98 66.1168 228.98C65.4368 228.98 64.8235 229.133 64.2768 229.44C63.7435 229.747 63.3168 230.187 62.9968 230.76C62.6901 231.32 62.5368 231.967 62.5368 232.7C62.5368 233.433 62.6901 234.087 62.9968 234.66C63.3168 235.22 63.7435 235.66 64.2768 235.98C64.8235 236.287 65.4368 236.44 66.1168 236.44ZM80.0093 227.3C81.036 227.3 81.956 227.527 82.7693 227.98C83.5826 228.433 84.216 229.067 84.6693 229.88C85.136 230.693 85.3693 231.633 85.3693 232.7C85.3693 233.767 85.136 234.713 84.6693 235.54C84.216 236.353 83.5826 236.987 82.7693 237.44C81.956 237.893 81.036 238.12 80.0093 238.12C79.2493 238.12 78.5493 237.973 77.9093 237.68C77.2826 237.387 76.7493 236.96 76.3093 236.4V241.88H74.3893V227.4H76.2293V229.08C76.656 228.493 77.196 228.053 77.8493 227.76C78.5026 227.453 79.2226 227.3 80.0093 227.3ZM79.8493 236.44C80.5293 236.44 81.136 236.287 81.6693 235.98C82.216 235.66 82.6426 235.22 82.9493 234.66C83.2693 234.087 83.4293 233.433 83.4293 232.7C83.4293 231.967 83.2693 231.32 82.9493 230.76C82.6426 230.187 82.216 229.747 81.6693 229.44C81.136 229.133 80.5293 228.98 79.8493 228.98C79.1826 228.98 78.576 229.14 78.0293 229.46C77.496 229.767 77.0693 230.2 76.7493 230.76C76.4426 231.32 76.2893 231.967 76.2893 232.7C76.2893 233.433 76.4426 234.087 76.7493 234.66C77.056 235.22 77.4826 235.66 78.0293 235.98C78.576 236.287 79.1826 236.44 79.8493 236.44ZM92.6988 238.12C91.6455 238.12 90.6988 237.887 89.8588 237.42C89.0188 236.953 88.3588 236.313 87.8788 235.5C87.4122 234.673 87.1788 233.74 87.1788 232.7C87.1788 231.66 87.4122 230.733 87.8788 229.92C88.3588 229.093 89.0188 228.453 89.8588 228C90.6988 227.533 91.6455 227.3 92.6988 227.3C93.7522 227.3 94.6922 227.533 95.5188 228C96.3588 228.453 97.0122 229.093 97.4788 229.92C97.9588 230.733 98.1988 231.66 98.1988 232.7C98.1988 233.74 97.9588 234.673 97.4788 235.5C97.0122 236.313 96.3588 236.953 95.5188 237.42C94.6922 237.887 93.7522 238.12 92.6988 238.12ZM92.6988 236.44C93.3788 236.44 93.9855 236.287 94.5188 235.98C95.0655 235.66 95.4922 235.22 95.7988 234.66C96.1055 234.087 96.2588 233.433 96.2588 232.7C96.2588 231.967 96.1055 231.32 95.7988 230.76C95.4922 230.187 95.0655 229.747 94.5188 229.44C93.9855 229.133 93.3788 228.98 92.6988 228.98C92.0188 228.98 91.4055 229.133 90.8588 229.44C90.3255 229.747 89.8988 230.187 89.5788 230.76C89.2722 231.32 89.1188 231.967 89.1188 232.7C89.1188 233.433 89.2722 234.087 89.5788 234.66C89.8988 235.22 90.3255 235.66 90.8588 235.98C91.4055 236.287 92.0188 236.44 92.6988 236.44ZM116.071 227.4V238H100.971V227.4H102.891V236.32H107.571V227.4H109.491V236.32H114.151V227.4H116.071ZM124.339 238.12C123.286 238.12 122.339 237.887 121.499 237.42C120.659 236.953 119.999 236.313 119.519 235.5C119.053 234.673 118.819 233.74 118.819 232.7C118.819 231.66 119.053 230.733 119.519 229.92C119.999 229.093 120.659 228.453 121.499 228C122.339 227.533 123.286 227.3 124.339 227.3C125.393 227.3 126.333 227.533 127.159 228C127.999 228.453 128.653 229.093 129.119 229.92C129.599 230.733 129.839 231.66 129.839 232.7C129.839 233.74 129.599 234.673 129.119 235.5C128.653 236.313 127.999 236.953 127.159 237.42C126.333 237.887 125.393 238.12 124.339 238.12ZM124.339 236.44C125.019 236.44 125.626 236.287 126.159 235.98C126.706 235.66 127.133 235.22 127.439 234.66C127.746 234.087 127.899 233.433 127.899 232.7C127.899 231.967 127.746 231.32 127.439 230.76C127.133 230.187 126.706 229.747 126.159 229.44C125.626 229.133 125.019 228.98 124.339 228.98C123.659 228.98 123.046 229.133 122.499 229.44C121.966 229.747 121.539 230.187 121.219 230.76C120.913 231.32 120.759 231.967 120.759 232.7C120.759 233.433 120.913 234.087 121.219 234.66C121.539 235.22 121.966 235.66 122.499 235.98C123.046 236.287 123.659 236.44 124.339 236.44Z" fill="black"/>
<path d="M88 0C136.6 0 176 38.5045 176 86C176 133.495 136.6 172 88 172C39.4 172 0 133.495 0 86C0 38.5045 39.4 0 88 0ZM128 70.3636C128 66.0636 124.4 62.5455 120 62.5455C115.6 62.5455 112 66.0636 112 70.3636C112 74.6636 115.6 78.1818 120 78.1818C124.4 78.1818 128 74.6636 128 70.3636ZM64 70.3636C64 66.0636 60.4 62.5455 56 62.5455C51.6 62.5455 48 66.0636 48 70.3636C48 74.6636 51.6 78.1818 56 78.1818C60.4 78.1818 64 74.6636 64 70.3636Z" fill="#73D13D"/>
<path d="M120 78.1818C124.418 78.1818 128 74.6815 128 70.3636C128 66.0457 124.418 62.5454 120 62.5454C115.582 62.5454 112 66.0457 112 70.3636C112 74.6815 115.582 78.1818 120 78.1818Z" fill="#73D13D"/>
<path d="M56 78.1818C60.4183 78.1818 64 74.6815 64 70.3636C64 66.0457 60.4183 62.5454 56 62.5454C51.5817 62.5454 48 66.0457 48 70.3636C48 74.6815 51.5817 78.1818 56 78.1818Z" fill="#73D13D"/>
<path d="M70.0893 68.8002C70.0893 62.4782 64.5399 57.3335 57.7206 57.3335C50.9013 57.3335 45.3519 62.4782 45.3519 68.8002C45.3519 75.1221 50.9013 80.2668 57.7206 80.2668C64.5399 80.2668 70.0893 75.1221 70.0893 68.8002ZM53.5977 68.8002C53.5977 66.6941 55.4489 64.9779 57.7206 64.9779C59.9923 64.9779 61.8435 66.6941 61.8435 68.8002C61.8435 70.9062 59.9923 72.6224 57.7206 72.6224C55.4489 72.6224 53.5977 70.9062 53.5977 68.8002Z" fill="#195F01"/>
<path d="M123.687 57.3335C116.868 57.3335 111.318 62.4782 111.318 68.8002C111.318 75.1221 116.868 80.2668 123.687 80.2668C130.506 80.2668 136.056 75.1221 136.056 68.8002C136.056 62.4782 130.506 57.3335 123.687 57.3335ZM123.687 72.6224C121.415 72.6224 119.564 70.9062 119.564 68.8002C119.564 66.6941 121.415 64.9779 123.687 64.9779C125.959 64.9779 127.81 66.6941 127.81 68.8002C127.81 70.9062 125.959 72.6224 123.687 72.6224Z" fill="#195F01"/>
<path d="M124.734 104.473C116.142 113.382 103.74 118.489 90.7037 118.489C77.7043 118.489 65.2943 113.379 56.6651 104.469C55.1438 102.894 52.5381 102.764 50.8436 104.178C49.1491 105.589 49.0089 108.004 50.5302 109.575C60.722 120.098 75.3666 126.133 90.7037 126.133C106.082 126.133 120.727 120.094 130.885 109.572C132.403 107.997 132.258 105.585 130.56 104.175C128.857 102.768 126.251 102.898 124.734 104.473Z" fill="#195F01"/>
</svg>
