<svg width="180" height="249" viewBox="0 0 180 249" fill="none" xmlns="http://www.w3.org/2000/svg">
<path d="M54.943 248.12C53.8896 248.12 52.943 247.887 52.103 247.42C51.263 246.953 50.603 246.313 50.123 245.5C49.6563 244.673 49.423 243.74 49.423 242.7C49.423 241.66 49.6563 240.733 50.123 239.92C50.603 239.093 51.263 238.453 52.103 238C52.943 237.533 53.8896 237.3 54.943 237.3C55.9963 237.3 56.9363 237.533 57.763 238C58.603 238.453 59.2563 239.093 59.723 239.92C60.203 240.733 60.443 241.66 60.443 242.7C60.443 243.74 60.203 244.673 59.723 245.5C59.2563 246.313 58.603 246.953 57.763 247.42C56.9363 247.887 55.9963 248.12 54.943 248.12ZM54.943 246.44C55.623 246.44 56.2296 246.287 56.763 245.98C57.3096 245.66 57.7363 245.22 58.043 244.66C58.3496 244.087 58.503 243.433 58.503 242.7C58.503 241.967 58.3496 241.32 58.043 240.76C57.7363 240.187 57.3096 239.747 56.763 239.44C56.2296 239.133 55.623 238.98 54.943 238.98C54.263 238.98 53.6496 239.133 53.103 239.44C52.5696 239.747 52.143 240.187 51.823 240.76C51.5163 241.32 51.363 241.967 51.363 242.7C51.363 243.433 51.5163 244.087 51.823 244.66C52.143 245.22 52.5696 245.66 53.103 245.98C53.6496 246.287 54.263 246.44 54.943 246.44ZM70.7248 239.08H66.8448V248H64.9248V239.08H61.0448V237.4H70.7248V239.08ZM81.1045 237.4V248H79.1845V239.08H74.6245L74.5045 241.44C74.4379 242.867 74.3112 244.06 74.1245 245.02C73.9379 245.967 73.6312 246.727 73.2045 247.3C72.7779 247.873 72.1845 248.16 71.4245 248.16C71.0779 248.16 70.6845 248.1 70.2445 247.98L70.3645 246.36C70.5379 246.4 70.6979 246.42 70.8445 246.42C71.3779 246.42 71.7779 246.187 72.0445 245.72C72.3112 245.253 72.4845 244.7 72.5645 244.06C72.6445 243.42 72.7179 242.507 72.7845 241.32L72.9645 237.4H81.1045ZM84.817 237.4H86.737V245.12L93.237 237.4H94.977V248H93.057V240.28L86.577 248H84.817V237.4ZM107.164 237.4V248H105.244V243.72C104.097 244.253 102.957 244.52 101.824 244.52C100.504 244.52 99.4838 244.213 98.7638 243.6C98.0438 242.987 97.6838 242.067 97.6838 240.84V237.4H99.6038V240.72C99.6038 241.453 99.8304 242.007 100.284 242.38C100.75 242.753 101.397 242.94 102.224 242.94C103.157 242.94 104.164 242.707 105.244 242.24V237.4H107.164ZM110.891 237.4H112.811V241.9H118.851V237.4H120.771V248H118.851V243.56H112.811V248H110.891V237.4ZM129.045 248.12C127.991 248.12 127.045 247.887 126.205 247.42C125.365 246.953 124.705 246.313 124.225 245.5C123.758 244.673 123.525 243.74 123.525 242.7C123.525 241.66 123.758 240.733 124.225 239.92C124.705 239.093 125.365 238.453 126.205 238C127.045 237.533 127.991 237.3 129.045 237.3C130.098 237.3 131.038 237.533 131.865 238C132.705 238.453 133.358 239.093 133.825 239.92C134.305 240.733 134.545 241.66 134.545 242.7C134.545 243.74 134.305 244.673 133.825 245.5C133.358 246.313 132.705 246.953 131.865 247.42C131.038 247.887 130.098 248.12 129.045 248.12ZM129.045 246.44C129.725 246.44 130.331 246.287 130.865 245.98C131.411 245.66 131.838 245.22 132.145 244.66C132.451 244.087 132.605 243.433 132.605 242.7C132.605 241.967 132.451 241.32 132.145 240.76C131.838 240.187 131.411 239.747 130.865 239.44C130.331 239.133 129.725 238.98 129.045 238.98C128.365 238.98 127.751 239.133 127.205 239.44C126.671 239.747 126.245 240.187 125.925 240.76C125.618 241.32 125.465 241.967 125.465 242.7C125.465 243.433 125.618 244.087 125.925 244.66C126.245 245.22 126.671 245.66 127.205 245.98C127.751 246.287 128.365 246.44 129.045 246.44Z" fill="black"/>
<path d="M90 3.91309C137.543 3.91309 176.087 42.4566 176.087 90.0001C176.087 137.544 137.543 176.087 90 176.087C42.4565 176.087 3.91302 137.544 3.91302 90.0001C3.91302 42.4566 42.4565 3.91309 90 3.91309ZM129.13 105.652H50.8695C50.8695 127.252 68.4 144.783 90 144.783C111.6 144.783 129.13 127.252 129.13 105.652ZM129.13 66.5218C129.13 62.2174 125.609 58.6957 121.304 58.6957C117 58.6957 113.478 62.2174 113.478 66.5218C113.478 70.8261 117 74.3479 121.304 74.3479C125.609 74.3479 129.13 70.8261 129.13 66.5218ZM66.5217 66.5218C66.5217 62.2174 63 58.6957 58.6956 58.6957C54.3913 58.6957 50.8695 62.2174 50.8695 66.5218C50.8695 70.8261 54.3913 74.3479 58.6956 74.3479C63 74.3479 66.5217 70.8261 66.5217 66.5218Z" fill="#20BF55"/>
<path d="M121.304 74.348C125.627 74.348 129.13 70.8441 129.13 66.5219C129.13 62.1997 125.627 58.6958 121.304 58.6958C116.982 58.6958 113.478 62.1997 113.478 66.5219C113.478 70.8441 116.982 74.348 121.304 74.348Z" fill="#20BF55"/>
<path d="M58.6957 74.348C63.0179 74.348 66.5217 70.8441 66.5217 66.5219C66.5217 62.1997 63.0179 58.6958 58.6957 58.6958C54.3734 58.6958 50.8696 62.1997 50.8696 66.5219C50.8696 70.8441 54.3734 74.348 58.6957 74.348Z" fill="#20BF55"/>
<path d="M121.304 78.261C127.776 78.261 133.043 72.994 133.043 66.5218C133.043 60.0497 127.776 54.7827 121.304 54.7827C114.832 54.7827 109.565 60.0497 109.565 66.5218C109.565 72.994 114.832 78.261 121.304 78.261ZM121.304 62.6088C123.464 62.6088 125.217 64.3658 125.217 66.5218C125.217 68.6779 123.464 70.4349 121.304 70.4349C119.144 70.4349 117.391 68.6779 117.391 66.5218C117.391 64.3658 119.144 62.6088 121.304 62.6088Z" fill="#1C5700"/>
<path d="M58.6956 78.261C65.1678 78.261 70.4347 72.994 70.4347 66.5218C70.4347 60.0497 65.1678 54.7827 58.6956 54.7827C52.2234 54.7827 46.9565 60.0497 46.9565 66.5218C46.9565 72.994 52.2234 78.261 58.6956 78.261ZM58.6956 62.6088C60.8556 62.6088 62.6087 64.3658 62.6087 66.5218C62.6087 68.6779 60.8556 70.4349 58.6956 70.4349C56.5356 70.4349 54.7826 68.6779 54.7826 66.5218C54.7826 64.3658 56.5356 62.6088 58.6956 62.6088Z" fill="#1C5700"/>
<path d="M90 148.696C113.733 148.696 133.043 129.385 133.043 105.652C133.043 103.492 131.294 101.739 129.13 101.739H50.8695C48.7056 101.739 46.9565 103.492 46.9565 105.652C46.9565 129.385 66.2674 148.696 90 148.696ZM124.998 109.565C123.046 127.151 108.098 140.87 90 140.87C71.9021 140.87 56.9543 127.151 55.0017 109.565H124.998Z" fill="#1C5700"/>
</svg>
