<svg width="242" height="297" viewBox="0 0 242 297" fill="none" xmlns="http://www.w3.org/2000/svg">
<path d="M121.875 291.26V296.06H120.015V293H108.495L108.475 296.06H106.615L106.635 291.26H107.315C108.195 291.207 108.815 290.513 109.175 289.18C109.535 287.833 109.755 285.94 109.835 283.5L109.975 279H119.815V291.26H121.875ZM111.595 283.68C111.529 285.653 111.369 287.287 111.115 288.58C110.875 289.873 110.482 290.767 109.935 291.26H117.835V280.74H111.695L111.595 283.68ZM133.768 289.5H126.328L124.788 293H122.728L129.068 279H131.048L137.408 293H135.308L133.768 289.5ZM133.068 287.9L130.048 281.04L127.028 287.9H133.068Z" fill="black"/>
<path d="M121 241.95C187.813 241.95 241.975 187.788 241.975 120.975C241.975 54.1624 187.813 0 121 0C54.1872 0 0.0247192 54.1624 0.0247192 120.975C0.0247192 187.788 54.1872 241.95 121 241.95Z" fill="#20BF55"/>
<path d="M111.869 241.657L43.7222 173.51L93.605 152.348L151.441 96.1318L157.333 52.2881L241.093 136.048C233.679 195.75 182.765 242 121.05 242C117.957 242 114.913 241.902 111.869 241.657Z" fill="#20BF55"/>
<path d="M106.959 108.701C108.972 104.577 114.078 96.3289 124.879 90.0445C139.952 81.3055 145.451 62.0594 146.188 56.7075C146.924 51.3069 159.837 44.9733 161.408 62.4026C162.979 79.8318 152.374 91.6156 152.374 91.6156H188.951C200.146 90.0445 201.913 108.358 190.915 108.554L187.429 108.603L187.331 109.536H189.442C198.329 109.536 198.329 126.966 189.442 126.966H189C195.677 129.175 195.235 144.051 186.987 144.051H184.63V144.1C190.276 145.328 189.688 150.581 189.688 154.951C189.688 162.316 170.54 166.194 165.728 167.52C151.834 171.3 133.52 167.078 117.957 165.654L108.186 164.525H86.8295V108.701H107.008H106.959Z" fill="#FFC964"/>
<path d="M79.5137 104.773H104.21V168.551H79.5137V104.773Z" fill="white"/>
<path d="M43.7222 99.7656H87.7134V173.51H43.7222V99.7656Z" fill="#006775"/>
</svg>
